<?xml version="1.0" encoding="UTF-8"?>
<svg xmlns="http://www.w3.org/2000/svg" width="2294" height="564" viewBox="0 0 2294 564" fill="none" role="img" aria-label="VibeLang">
  <defs>
    <linearGradient id="warm" x1="0" y1="0" x2="1" y2="1">
      <stop offset="0%" stop-color="#ff6b2b"/>
      <stop offset="100%" stop-color="#ff2d95"/>
    </linearGradient>
    <linearGradient id="cool" x1="0" y1="0" x2="1" y2="1">
      <stop offset="0%" stop-color="#00f0ff"/>
      <stop offset="100%" stop-color="#b026ff"/>
    </linearGradient>
  </defs>
  <g fill="url(#warm)">
    <path d="M452 0 35 720H202.36724853515625L514.3248291015625 179.4627685546875L826.1337890625 720H992.649658203125L575.7982788085938 0Z" transform="translate(40.000,484.620) scale(0.420000, -0.420000)"/>
    <path d="M52 0V580H194.44793701171875V0ZM52 626.70068359375V770H194.44793701171875V626.70068359375Z" transform="translate(451.260,484.620) scale(0.420000, -0.420000)"/>
    <path d="M54 0V770H196.44793701171875V580H501.01275634765625Q539.7595672607422 580 572.0485763549805 560.5201721191406Q604.3375854492188 541.0403442382812 623.3917236328125 509.017391204834Q642.4458618164062 476.9944381713867 642.4458618164062 438.56689453125V141.43310546875Q642.4458618164062 103.00556182861328 623.3917236328125 70.98260879516602Q604.3375854492188 38.95965576171875 572.0485763549805 19.479827880859375Q539.7595672607422 0 501.01275634765625 0ZM202.39276123046875 142.44793701171875H494.20172119140625Q496.57965087890625 142.44793701171875 498.2887878417969 144.15707397460938Q499.9979248046875 145.8662109375 499.9979248046875 148.244140625V431.755859375Q499.9979248046875 434.1337890625 498.2887878417969 435.8429260253906Q496.57965087890625 437.55206298828125 494.20172119140625 437.55206298828125H202.39276123046875Q200.01483154296875 437.55206298828125 198.23138427734375 435.8429260253906Q196.44793701171875 434.1337890625 196.44793701171875 431.755859375V148.244140625Q196.44793701171875 145.8662109375 198.23138427734375 144.15707397460938Q200.01483154296875 142.44793701171875 202.39276123046875 142.44793701171875Z" transform="translate(536.180,484.620) scale(0.420000, -0.420000)"/>
    <path d="M192.43310546875 0Q154.00556182861328 0 121.98260879516602 19.479827880859375Q89.95965576171875 38.95965576171875 70.47982788085938 70.98260879516602Q51 103.00556182861328 51 141.43310546875V438.56689453125Q51 476.9944381713867 70.47982788085938 509.017391204834Q89.95965576171875 541.0403442382812 121.98260879516602 560.5201721191406Q154.00556182861328 580 192.43310546875 580H497.8641357421875Q537.3213380907403 580 569.235251755011 560.626594543457Q601.1491654192815 541.2531890869141 620.2975136178438 508.9641799926758Q639.4458618164062 476.6751708984375 639.4458618164062 438.56689453125V218.350341796875H193.44793701171875V148.244140625Q193.44793701171875 145.8662109375 195.15707397460938 144.15707397460938Q196.8662109375 142.44793701171875 199.244140625 142.44793701171875H639.4458618164062V0H192.43310546875ZM193.44793701171875 344.6220703125H496.84930419921875V431.755859375Q496.84930419921875 434.1337890625 495.1401672363281 435.8429260253906Q493.4310302734375 437.55206298828125 491.0531005859375 437.55206298828125H199.244140625Q196.8662109375 437.55206298828125 195.15707397460938 435.8429260253906Q193.44793701171875 434.1337890625 193.44793701171875 431.755859375Z" transform="translate(806.320,484.620) scale(0.420000, -0.420000)"/>
  </g>
  <g fill="url(#cool)">
    <path d="M57 0V721H201.0020751953125V144.85345458984375H777V0Z" transform="translate(1086.960,484.620) scale(0.420000, -0.420000)"/>
    <path d="M193.43310546875 0Q154.68629455566406 0 122.39728546142578 19.479827880859375Q90.1082763671875 38.95965576171875 71.05413818359375 70.98260879516602Q52 103.00556182861328 52 141.43310546875V361.649658203125H497.84930419921875V431.755859375Q497.84930419921875 434.1337890625 496.1401672363281 435.8429260253906Q494.4310302734375 437.55206298828125 492.0531005859375 437.55206298828125H52V580H498.8641357421875Q538.3213380907403 580 570.235251755011 560.626594543457Q602.1491654192815 541.2531890869141 621.2975136178438 508.9641799926758Q640.4458618164062 476.6751708984375 640.4458618164062 438.56689453125V0ZM200.244140625 142.44793701171875H497.84930419921875V235.3779296875H194.44793701171875V148.244140625Q194.44793701171875 145.8662109375 196.15707397460938 144.15707397460938Q197.8662109375 142.44793701171875 200.244140625 142.44793701171875Z" transform="translate(1404.140,484.620) scale(0.420000, -0.420000)"/>
    <path d="M54 0V580H501.01275634765625Q539.7595672607422 580 572.0485763549805 560.5201721191406Q604.3375854492188 541.0403442382812 623.3917236328125 509.017391204834Q642.4458618164062 476.9944381713867 642.4458618164062 438.56689453125V0H499.9979248046875V431.755859375Q499.9979248046875 434.1337890625 498.2887878417969 435.8429260253906Q496.57965087890625 437.55206298828125 494.20172119140625 437.55206298828125H202.39276123046875Q200.01483154296875 437.55206298828125 198.23138427734375 435.8429260253906Q196.44793701171875 434.1337890625 196.44793701171875 431.755859375V0Z" transform="translate(1685.620,484.620) scale(0.420000, -0.420000)"/>
    <path d="M135.22930908203125 -229V-85.55206298828125H481.90447998046875Q484.28240966796875 -85.55206298828125 485.9915466308594 -83.84292602539062Q487.70068359375 -82.1337890625 487.70068359375 -79.755859375V0H183.28448486328125Q144.47962535511363 0 112.14224243164062 19.37340545654297Q79.80485950816761 38.74681091308594 60.402429754083805 71.03582000732422Q41 103.3248291015625 41 141.43310546875V438.56689453125Q41 476.9944381713867 60.479827880859375 509.017391204834Q79.95965576171875 541.0403442382812 112.24866485595703 560.5201721191406Q144.5376739501953 580 183.28448486328125 580H488.71551513671875Q528.2446981708655 580 560.2168315073077 560.5201721191406Q592.18896484375 541.0403442382812 611.1687927246094 509.017391204834Q630.1486206054688 476.9944381713867 630.1486206054688 438.56689453125V-87.41827392578125Q630.1486206054688 -126.87547627433402 611.3302612304688 -158.78938993860464Q592.5119018554688 -190.70330360287525 560.1678466796875 -209.85165180143764Q527.8237915039062 -229 488.71551513671875 -229ZM189.244140625 142.44793701171875H481.90447998046875Q484.28240966796875 142.44793701171875 485.9915466308594 144.15707397460938Q487.70068359375 145.8662109375 487.70068359375 148.244140625V431.755859375Q487.70068359375 434.1337890625 485.9915466308594 435.8429260253906Q484.28240966796875 437.55206298828125 481.90447998046875 437.55206298828125H189.244140625Q186.8662109375 437.55206298828125 185.15707397460938 435.8429260253906Q183.44793701171875 434.1337890625 183.44793701171875 431.755859375V148.244140625Q183.44793701171875 145.8662109375 185.15707397460938 144.15707397460938Q186.8662109375 142.44793701171875 189.244140625 142.44793701171875Z" transform="translate(1967.940,484.620) scale(0.420000, -0.420000)"/>
  </g>
</svg>
